<?xml version="1.0" encoding="UTF-8" standalone="no"?>
<!-- Created with Inkscape (http://www.inkscape.org/) -->

<svg
   xmlns:dc="http://purl.org/dc/elements/1.1/"
   xmlns:cc="http://creativecommons.org/ns#"
   xmlns:rdf="http://www.w3.org/1999/02/22-rdf-syntax-ns#"
   xmlns:svg="http://www.w3.org/2000/svg"
   xmlns="http://www.w3.org/2000/svg"
   xmlns:sodipodi="http://sodipodi.sourceforge.net/DTD/sodipodi-0.dtd"
   xmlns:inkscape="http://www.inkscape.org/namespaces/inkscape"
   width="100"
   height="100"
   id="svg2"
   version="1.1"
   inkscape:version="0.48.4 r9939"
   sodipodi:docname="art.svg"
   inkscape:export-filename="/home/jaan/Dropbox/Courses/2016-2017/SCI-C1000-Blog/branding/art.png"
   inkscape:export-xdpi="300"
   inkscape:export-ydpi="300">
  <defs
     id="defs4">
    <marker
       inkscape:stockid="Arrow2Mstart"
       orient="auto"
       refY="0.0"
       refX="0.0"
       id="Arrow2Mstart"
       style="overflow:visible">
      <path
         id="path3973"
         style="fill-rule:evenodd;stroke-width:0.62500000;stroke-linejoin:round"
         d="M 8.7185878,4.0337352 L -2.2072895,0.016013256 L 8.7185884,-4.0017078 C 6.9730900,-1.6296469 6.9831476,1.6157441 8.7185878,4.0337352 z "
         transform="scale(0.6) translate(0,0)" />
    </marker>
    <marker
       inkscape:stockid="Arrow1Lstart"
       orient="auto"
       refY="0.0"
       refX="0.0"
       id="Arrow1Lstart"
       style="overflow:visible">
      <path
         id="path3949"
         d="M 0.0,0.0 L 5.0,-5.0 L -12.5,0.0 L 5.0,5.0 L 0.0,0.0 z "
         style="fill-rule:evenodd;stroke:#000000;stroke-width:1.0pt"
         transform="scale(0.8) translate(12.5,0)" />
    </marker>
    <inkscape:perspective
       sodipodi:type="inkscape:persp3d"
       inkscape:vp_x="2.2148854 : 44.867609 : 1"
       inkscape:vp_y="863.10085 : -1000 : 0"
       inkscape:vp_z="102.21489 : 44.867609 : 1"
       inkscape:persp3d-origin="37.829871 : 61.534276 : 1"
       id="perspective3813" />
  </defs>
  <sodipodi:namedview
     id="base"
     pagecolor="#ffffff"
     bordercolor="#666666"
     borderopacity="1.0"
     inkscape:pageopacity="0.0"
     inkscape:pageshadow="2"
     inkscape:zoom="3.959798"
     inkscape:cx="65.02228"
     inkscape:cy="41.026608"
     inkscape:document-units="px"
     inkscape:current-layer="layer1"
     showgrid="true"
     inkscape:window-width="1855"
     inkscape:window-height="1056"
     inkscape:window-x="65"
     inkscape:window-y="24"
     inkscape:window-maximized="1"
     showguides="true"
     inkscape:guide-bbox="true">
    <inkscape:grid
       type="axonomgrid"
       id="grid5156"
       units="mm"
       empspacing="5"
       visible="true"
       enabled="true"
       snapvisiblegridlinesonly="true"
       gridanglex="30"
       gridanglez="30" />
  </sodipodi:namedview>
  <metadata
     id="metadata7">
    <rdf:RDF>
      <cc:Work
         rdf:about="">
        <dc:format>image/svg+xml</dc:format>
        <dc:type
           rdf:resource="http://purl.org/dc/dcmitype/StillImage" />
        <dc:title></dc:title>
      </cc:Work>
    </rdf:RDF>
  </metadata>
  <g
     inkscape:label="Layer 1"
     inkscape:groupmode="layer"
     id="layer1"
     transform="translate(0,-952.36218)">
    <path
       style="fill:none;stroke:#000000;stroke-width:0.1;stroke-linecap:butt;stroke-linejoin:miter;stroke-miterlimit:4;stroke-opacity:1;stroke-dasharray:none"
       d="M 46.028909,901.78288 15.34297,884.06634"
       id="path5214"
       inkscape:connector-curvature="0" />
    <path
       style="fill:none;stroke:#000000;stroke-width:0.1;stroke-linecap:butt;stroke-linejoin:miter;stroke-miterlimit:4;stroke-opacity:1;stroke-dasharray:none"
       d="m 76.714849,884.06634 -30.68594,17.71654"
       id="path5216"
       inkscape:connector-curvature="0" />
    <path
       style="fill:none;stroke:#000000;stroke-width:0.1;stroke-linecap:butt;stroke-linejoin:miter;stroke-miterlimit:4;stroke-opacity:1;stroke-dasharray:none"
       d="m 46.028909,937.21595 0,-35.43307"
       id="path5218"
       inkscape:connector-curvature="0" />
    <path
       style="fill:none;stroke:#000000;stroke-width:0.1;stroke-linecap:butt;stroke-linejoin:miter;stroke-miterlimit:4;stroke-opacity:1;stroke-dasharray:none"
       d="m 76.714849,919.49941 -30.68594,17.71654"
       id="path5220"
       inkscape:connector-curvature="0" />
    <path
       style="fill:none;stroke:#000000;stroke-width:0.1;stroke-linecap:butt;stroke-linejoin:miter;stroke-miterlimit:4;stroke-opacity:1;stroke-dasharray:none"
       d="m 76.714849,884.06634 0,35.43307"
       id="path5222"
       inkscape:connector-curvature="0" />
    <path
       style="fill:none;stroke:#000000;stroke-width:0.1;stroke-linecap:butt;stroke-linejoin:miter;stroke-miterlimit:4;stroke-opacity:1;stroke-dasharray:none"
       d="M 15.34297,884.06634 46.028909,866.34981"
       id="path5224"
       inkscape:connector-curvature="0" />
    <path
       style="fill:none;stroke:#000000;stroke-width:0.1;stroke-linecap:butt;stroke-linejoin:miter;stroke-miterlimit:4;stroke-opacity:1;stroke-dasharray:none"
       d="M 76.714849,884.06634 46.028909,866.34981"
       id="path5226"
       inkscape:connector-curvature="0" />
    <path
       style="fill:none;stroke:#000000;stroke-width:0.1;stroke-linecap:butt;stroke-linejoin:miter;stroke-miterlimit:4;stroke-opacity:1;stroke-dasharray:none"
       d="m 15.34297,919.49941 30.685939,17.71654"
       id="path5228"
       inkscape:connector-curvature="0" />
    <path
       style="fill:none;stroke:#000000;stroke-width:0.1;stroke-linecap:butt;stroke-linejoin:miter;stroke-miterlimit:4;stroke-opacity:1;stroke-dasharray:none"
       d="m 15.34297,884.06634 0,35.43307"
       id="path5230"
       inkscape:connector-curvature="0" />
    <path
       style="fill:#b3b3b3;fill-opacity:1;stroke:none"
       d="m 34.918556,993.35681 c -11.53657,-6.66654 -14.99215,-8.74064 -14.82143,-8.89606 0.37097,-0.33773 29.82545,-17.27913 30.04165,-17.27913 0.21404,0 29.67088,16.94034 30.0445,17.2783 0.16762,0.15162 -3.40127,2.29129 -14.84676,8.90113 -8.28709,4.78583 -15.1364,8.69875 -15.22068,8.69535 -0.0843,-0 -6.92306,-3.91823 -15.19728,-8.69959 l 0,0 z"
       id="path5232"
       inkscape:connector-curvature="0" />
    <path
       style="fill:#cccccc;fill-opacity:1;stroke:none"
       d="m 34.88042,988.1759 c -11.53657,-6.66654 -14.99215,-8.74064 -14.82143,-8.89606 0.37097,-0.33773 29.82545,-17.27913 30.04165,-17.27913 0.21404,0 29.67088,16.94034 30.0445,17.2783 0.16762,0.15162 -3.40127,2.29129 -14.84676,8.90113 -8.28709,4.78583 -15.1364,8.6987 -15.22068,8.6953 -0.0843,0 -6.92306,-3.91818 -15.19728,-8.69954 l 0,0 z"
       id="path5232-2"
       inkscape:connector-curvature="0" />
    <path
       style="fill:#b3b3b3;fill-opacity:1;stroke:none"
       d="m 34.694746,1028.6694 -15.08929,-8.7287 -0.0455,-17.5299 c -0.0364,-14.00454 -4.5e-4,-17.51152 0.17857,-17.43821 0.12325,0.0505 6.97409,3.99296 15.22409,8.76109 l 15,8.66932 0.0455,17.5084 c 0.025,9.6296 -0.0151,17.5035 -0.0893,17.4975 -0.0741,-0.01 -6.92498,-3.9387 -15.22408,-8.7395 z"
       id="path5234"
       inkscape:connector-curvature="0" />
    <path
       style="fill:#b3b3b3;fill-opacity:1;stroke:none"
       d="m 50.274226,1019.929 0.0455,-17.5296 15,-8.66916 c 8.25,-4.76802 15.10084,-8.70969 15.22409,-8.75927 0.17902,-0.072 0.21494,3.43591 0.17857,17.43943 l -0.0455,17.5296 -15,8.6672 c -8.25,4.767 -15.10084,8.7087 -15.22409,8.7593 -0.17903,0.074 -0.21494,-3.4331 -0.17857,-17.4375 l 0,0 z"
       id="path5236"
       inkscape:connector-curvature="0" />
    <path
       style="fill:#cccccc;fill-opacity:1;stroke:none;opacity:0.7"
       d="m 56.331481,1022.5936 0.0455,-17.5296 15,-8.66925 c 8.25,-4.76802 15.10084,-8.70969 15.22409,-8.75927 0.17902,-0.072 0.21494,3.43591 0.17857,17.43952 l -0.0455,17.5296 -15,8.6672 c -8.25,4.767 -15.10084,8.7087 -15.22409,8.7593 -0.17903,0.074 -0.21494,-3.4331 -0.17857,-17.4375 l 0,0 z"
       id="path5236-7"
       inkscape:connector-curvature="0" />
    <path
       style="fill:#cccccc;fill-opacity:1;stroke:none;opacity:0.7"
       d="m 28.557558,1032.2127 -15.08929,-8.7287 -0.0455,-17.5299 c -0.0364,-14.00453 -4.5e-4,-17.51151 0.17857,-17.4382 0.12325,0.0505 6.97409,3.99296 15.22409,8.76109 l 15,8.66931 0.0455,17.5084 c 0.025,9.6296 -0.0151,17.5035 -0.0893,17.4975 -0.0741,-0.01 -6.92498,-3.9387 -15.22408,-8.7395 z"
       id="path5234-0"
       inkscape:connector-curvature="0" />
    <path
       style="opacity:0.69999999999999996;fill:#e6e6e6;fill-opacity:1;stroke:none"
       d="m 33.996537,981.69731 c -11.53657,-6.66654 -14.99215,-8.74064 -14.82143,-8.89606 0.37097,-0.33773 29.82545,-17.27913 30.04165,-17.27913 0.21404,0 29.67088,16.94034 30.0445,17.2783 0.16762,0.15162 -3.40127,2.29129 -14.84676,8.90113 -8.28709,4.78583 -15.1364,8.6987 -15.22068,8.6953 -0.0843,0 -6.92306,-3.91818 -15.19728,-8.69954 l 0,0 z"
       id="path5232-2-9"
       inkscape:connector-curvature="0" />
    <path
       style="opacity:0.69999999999999996;fill:#e6e6e6;fill-opacity:1;stroke:none"
       d="m 61.39666,1025.6358 0.0455,-17.5296 15,-8.66934 c 8.250001,-4.76801 15.100841,-8.70968 15.224091,-8.75926 0.17902,-0.072 0.21494,3.43591 0.17857,17.4396 l -0.0455,17.5296 -15.000001,8.6672 c -8.25,4.767 -15.10084,8.7087 -15.22409,8.7593 -0.17903,0.074 -0.21494,-3.4331 -0.17857,-17.4375 l 0,0 z"
       id="path5236-7-3"
       inkscape:connector-curvature="0" />
    <path
       style="opacity:0.69999999999999996;fill:#e6e6e6;fill-opacity:1;stroke:none"
       d="m 20.538194,1036.1465 -15.0892899,-8.7287 -0.0455,-17.5299 c -0.0364,-14.00459 -4.5e-4,-17.51153 0.17857,-17.43822 0.12325,0.0505 6.9740899,3.99293 15.2240899,8.76112 l 15,8.6693 0.0455,17.5084 c 0.025,9.6296 -0.0151,17.5035 -0.0893,17.4975 -0.0741,-0.01 -6.92498,-3.9387 -15.22408,-8.7395 z"
       id="path5234-0-6"
       inkscape:connector-curvature="0" />
    <path
       style="fill:#b3b3b3;fill-opacity:1;stroke:none"
       d="m 141.88227,886.5711 c -11.53657,-6.66654 -14.99215,-8.74064 -14.82143,-8.89606 0.37097,-0.33773 29.82545,-17.27913 30.04165,-17.27913 0.21404,0 29.67088,16.94034 30.0445,17.2783 0.16762,0.15162 -3.40127,2.29129 -14.84676,8.90113 -8.28709,4.78583 -15.1364,8.69875 -15.22068,8.69535 -0.0843,0 -6.92306,-3.91823 -15.19728,-8.69959 l 0,0 z"
       id="path5232-0"
       inkscape:connector-curvature="0" />
    <path
       style="opacity:0.7;fill:#cccccc;fill-opacity:1;stroke:none"
       d="m 141.84413,881.39019 c -11.53657,-6.66654 -14.99215,-8.74064 -14.82143,-8.89606 0.37097,-0.33773 29.82545,-17.27913 30.04165,-17.27913 0.21404,0 29.67088,16.94034 30.0445,17.2783 0.16762,0.15162 -3.40127,2.29129 -14.84676,8.90113 -8.28709,4.78583 -15.1364,8.6987 -15.22068,8.6953 -0.0843,0 -6.92306,-3.91818 -15.19728,-8.69954 l 0,0 z"
       id="path5232-2-6"
       inkscape:connector-curvature="0" />
    <path
       style="fill:#b3b3b3;fill-opacity:1;stroke:none"
       d="m 141.65846,921.88369 -15.08929,-8.7287 -0.0455,-17.5299 c -0.0364,-14.00454 -4.5e-4,-17.51152 0.17857,-17.43821 0.12325,0.0505 6.97409,3.99296 15.22409,8.76109 l 15,8.66932 0.0455,17.5084 c 0.025,9.6296 -0.0151,17.5035 -0.0893,17.4975 -0.0741,-0.01 -6.92498,-3.9387 -15.22408,-8.7395 z"
       id="path5234-2"
       inkscape:connector-curvature="0" />
    <path
       style="fill:#b3b3b3;fill-opacity:1;stroke:none"
       d="m 157.23794,913.14329 0.0455,-17.5296 15,-8.66916 c 8.25,-4.76802 15.10084,-8.70969 15.22409,-8.75927 0.17902,-0.072 0.21494,3.43591 0.17857,17.43943 l -0.0455,17.5296 -15,8.6672 c -8.25,4.767 -15.10084,8.7087 -15.22409,8.7593 -0.17903,0.074 -0.21494,-3.4331 -0.17857,-17.4375 l 0,0 z"
       id="path5236-6"
       inkscape:connector-curvature="0" />
    <path
       style="opacity:0.7;fill:#cccccc;fill-opacity:1;stroke:none"
       d="m 163.29519,915.80789 0.0455,-17.5296 15,-8.66925 c 8.25,-4.76802 15.10084,-8.70969 15.22409,-8.75927 0.17902,-0.072 0.21494,3.43591 0.17857,17.43952 l -0.0455,17.5296 -15,8.6672 c -8.25,4.767 -15.10084,8.7087 -15.22409,8.7593 -0.17903,0.074 -0.21494,-3.4331 -0.17857,-17.4375 l 0,0 z"
       id="path5236-7-1"
       inkscape:connector-curvature="0" />
    <path
       style="opacity:0.7;fill:#cccccc;fill-opacity:1;stroke:none"
       d="m 135.52127,925.42699 -15.08929,-8.7287 -0.0455,-17.5299 c -0.0364,-14.00453 -4.5e-4,-17.51151 0.17857,-17.4382 0.12325,0.0505 6.97409,3.99296 15.22409,8.76109 l 15,8.66931 0.0455,17.5084 c 0.025,9.6296 -0.0151,17.5035 -0.0893,17.4975 -0.0741,-0.01 -6.92498,-3.9387 -15.22408,-8.7395 z"
       id="path5234-0-8"
       inkscape:connector-curvature="0" />
    <path
       style="opacity:0.7;fill:#e6e6e6;fill-opacity:1;stroke:none"
       d="m 140.96025,874.9116 c -11.53657,-6.66654 -14.99215,-8.74064 -14.82143,-8.89606 0.37097,-0.33773 29.82545,-17.27913 30.04165,-17.27913 0.21404,0 29.67088,16.94034 30.0445,17.2783 0.16762,0.15162 -3.40127,2.29129 -14.84676,8.90113 -8.28709,4.78583 -15.1364,8.6987 -15.22068,8.6953 -0.0843,0 -6.92306,-3.91818 -15.19728,-8.69954 l 0,0 z"
       id="path5232-2-9-7"
       inkscape:connector-curvature="0" />
    <path
       style="opacity:0.7;fill:#e6e6e6;fill-opacity:1;stroke:none"
       d="m 168.36037,918.85009 0.0455,-17.5296 15,-8.66934 c 8.25,-4.76801 15.10084,-8.70968 15.22409,-8.75926 0.17902,-0.072 0.21494,3.43591 0.17857,17.4396 l -0.0455,17.5296 -15,8.6672 c -8.25,4.767 -15.10084,8.7087 -15.22409,8.7593 -0.17903,0.074 -0.21494,-3.4331 -0.17857,-17.4375 l 0,0 z"
       id="path5236-7-3-9"
       inkscape:connector-curvature="0" />
    <path
       style="opacity:0.7;fill:#e6e6e6;fill-opacity:1;stroke:none"
       d="m 127.5019,929.36079 -15.08929,-8.7287 -0.0455,-17.5299 c -0.0364,-14.00459 -4.5e-4,-17.51153 0.17857,-17.43822 0.12325,0.0505 6.97409,3.99293 15.22409,8.76112 l 15,8.6693 0.0455,17.5084 c 0.025,9.6296 -0.0151,17.5035 -0.0893,17.4975 -0.0741,-0.01 -6.92498,-3.9387 -15.22408,-8.7395 z"
       id="path5234-0-6-2"
       inkscape:connector-curvature="0" />
  </g>
</svg>
